<svg xmlns="http://www.w3.org/2000/svg" width="142" height="22" fill="none"><g clip-path="url(#a)"><path fill="#3A04FF" d="M19.814.846A2.6 2.6 0 0 1 21.67.06h8.986c5.844 0 8.77 7.24 4.638 11.473l-9 9.222c-.414.424-1.12.124-1.12-.475v-8.123l1.04-1.065c.826-.847.24-2.295-.928-2.295H12.055l7.759-7.95Z"/><path fill="#3A04FF" d="M17.415 20.106a2.6 2.6 0 0 1-1.856.787H6.572c-5.843 0-8.77-7.239-4.638-11.473L10.935.198c.413-.423 1.12-.123 1.12.475v8.123l-1.04 1.066c-.827.847-.241 2.294.927 2.294h13.232z"/><path fill="#0D0D0D" d="M89.429 7.04v10.473h3.123V7.04zm.217-1.742q.554.545 1.354.545.801 0 1.344-.545.554-.546.554-1.324a1.78 1.78 0 0 0-.554-1.334A1.82 1.82 0 0 0 91 2.095q-.8 0-1.354.545a1.78 1.78 0 0 0-.553 1.334q0 .778.553 1.324"/><path fill="#0D0D0D" fill-rule="evenodd" d="M94.314 21.602V7.04h2.965v1.042h.038q.28-.272.604-.497 1.047-.72 2.411-.72a4.6 4.6 0 0 1 2.284.613q1.097.614 1.779 1.82.68 1.207.662 3.008.009 1.362-.386 2.375-.396 1.002-1.067 1.664a4.5 4.5 0 0 1-1.503.993 4.5 4.5 0 0 1-1.68.331q-1.344 0-2.411-.74a5 5 0 0 1-.51-.408h-.064v5.08h-3.122ZM99.69 15.1a2.2 2.2 0 0 0 1.216-.36q.523-.351.82-.993.297-.643.286-1.5.01-.875-.296-1.498a2.17 2.17 0 0 0-.84-.964 2.24 2.24 0 0 0-1.245-.331q-.663-.01-1.186.321-.524.33-.83.964-.306.623-.307 1.508 0 .857.307 1.5.316.642.85.992.533.351 1.225.36Z" clip-rule="evenodd"/><path fill="#0D0D0D" d="M108.064 17.348a5.2 5.2 0 0 0 1.818.321 4.7 4.7 0 0 0 1.986-.418 3.6 3.6 0 0 0 1.453-1.168 2.88 2.88 0 0 0 .553-1.743q0-.779-.335-1.314a2.8 2.8 0 0 0-.83-.876 4.7 4.7 0 0 0-1.018-.535 9 9 0 0 0-.92-.312 26 26 0 0 1-.988-.301 3 3 0 0 1-.781-.37.66.66 0 0 1-.306-.565q0-.35.306-.584t.771-.233q.553 0 .909.292.365.291.554.603l2.401-1.022q-.454-1.013-1.541-1.626-1.078-.612-2.432-.613-1.086 0-1.937.4a3.33 3.33 0 0 0-1.334 1.109q-.484.7-.484 1.625 0 .875.415 1.49.415.613 1.077 1.012.672.39 1.424.613l.711.195q.395.107.751.253c.356.146.431.214.583.35a.633.633 0 0 1 .069.906q-.147.195-.415.32a1.5 1.5 0 0 1-.622.118 1.77 1.77 0 0 1-1.167-.41 3 3 0 0 1-.741-.865l-2.451 1.06q.336.789.998 1.383.662.584 1.523.905m18.506.166V7.04h2.974v1.334h.055a3.8 3.8 0 0 1 .786-.808q.889-.682 2.105-.682 1.007 0 1.71.487.54.363.882.973h.056a3.6 3.6 0 0 1 1.226-.993 4.5 4.5 0 0 1 2.046-.467q1.056 0 1.739.37.681.36 1.067.954.385.585.544 1.285.158.69.158 1.343v6.678h-3.143v-6.298q0-.857-.365-1.314-.357-.468-1.048-.468-.454 0-.811.205a1.4 1.4 0 0 0-.553.594q-.198.398-.198.983v6.298h-3.123v-6.298q0-.857-.365-1.314-.366-.468-1.058-.468-.672 0-1.117.458-.444.448-.444 1.343v6.279zm-7.643.156a4.34 4.34 0 0 1-1.996-.458 3.55 3.55 0 0 1-1.433-1.363q-.524-.906-.524-2.229V7.04h3.123v6.171q0 .906.475 1.382a1.63 1.63 0 0 0 1.176.467q.513 0 .899-.223.396-.224.613-.633.228-.42.227-.993V7.04h3.123v6.804q0 .564.168.818.168.252.682.438l-1.107 2.57q-1.176-.303-1.719-.79a1.6 1.6 0 0 1-.415-.564h-.079a5.5 5.5 0 0 1-.919.73q-.998.624-2.294.623Z"/><path fill="#0D0D0D" fill-rule="evenodd" d="M82.666 17.67q-1.532 0-2.797-.692a5.35 5.35 0 0 1-2.006-1.908q-.741-1.216-.741-2.803t.74-2.803a5.3 5.3 0 0 1 2.007-1.898q1.265-.682 2.797-.682 1.561 0 2.817.682a5.14 5.14 0 0 1 1.986 1.898q.741 1.216.741 2.803t-.74 2.803a5.2 5.2 0 0 1-1.997 1.908q-1.255.69-2.807.691Zm0-2.629q.731 0 1.315-.35.583-.35.919-.974.335-.622.336-1.45 0-.798-.326-1.421a2.44 2.44 0 0 0-2.224-1.333q-.742 0-1.334.35a2.4 2.4 0 0 0-.92.963q-.335.624-.335 1.441 0 .828.336 1.45.345.624.929.974.583.35 1.304.35m-14.787 6.395a8.7 8.7 0 0 0 2.43.321q1.237 0 2.264-.311a5 5 0 0 0 1.779-.915 4.14 4.14 0 0 0 1.176-1.519q.415-.905.415-2.102V7.03h-2.836v1.022h-.06a4.6 4.6 0 0 0-.613-.486q-1.028-.691-2.4-.691a4.7 4.7 0 0 0-2.284.593q-1.096.585-1.799 1.752-.691 1.16-.692 2.91 0 1.316.406 2.288.405.973 1.077 1.626.683.643 1.512.963.83.312 1.67.312 1.355 0 2.412-.73a5 5 0 0 0 .624-.516h.048v1.012q0 .75-.494 1.207-.494.468-1.196.681-.703.215-1.354.215a4.8 4.8 0 0 1-1.502-.244 6 6 0 0 1-1.285-.564l-1.028 2.414q.632.33 1.73.642m4.071-6.97a2.26 2.26 0 0 1-1.255.351 2.2 2.2 0 0 1-1.235-.35 2.5 2.5 0 0 1-.84-.983q-.306-.633-.307-1.45 0-.819.307-1.422.315-.603.87-.924a2.4 2.4 0 0 1 1.255-.331q.701 0 1.235.32.534.322.84.925.306.594.306 1.431 0 .828-.316 1.46a2.45 2.45 0 0 1-.86.974ZM58.922 17.67q-1.531 0-2.797-.692a5.35 5.35 0 0 1-2.006-1.908q-.741-1.216-.741-2.803t.741-2.803a5.3 5.3 0 0 1 2.006-1.898q1.266-.682 2.797-.682 1.56 0 2.817.682a5.14 5.14 0 0 1 1.986 1.898q.741 1.216.741 2.803t-.74 2.803a5.2 5.2 0 0 1-1.997 1.908q-1.256.69-2.807.691Zm0-2.629a2.5 2.5 0 0 0 1.314-.35q.583-.35.92-.974.336-.622.335-1.45 0-.798-.326-1.421a2.44 2.44 0 0 0-2.223-1.334q-.741 0-1.335.35a2.4 2.4 0 0 0-.919.964q-.336.624-.336 1.441 0 .828.336 1.45.346.624.93.974.582.35 1.304.35" clip-rule="evenodd"/><path fill="#0D0D0D" d="M44.935 3.166v14.348h8.49V14.67h-5.249V3.166z"/></g><defs><clipPath id="a"><path fill="#fff" d="M0 0h142v22H0z"/></clipPath></defs></svg>