<svg xmlns="http://www.w3.org/2000/svg" width="120" height="22" fill="none"><g clip-path="url(#a)"><path fill="#0094F7" d="M11.163 0c2.96 0 5.8 1.159 7.893 3.222q.564.556 1.037 1.178h-8.93c-1.777 0-3.48.695-4.736 1.933A6.55 6.55 0 0 0 4.465 11h6.698L20.6 5.126c.7 1.093 1.2 2.3 1.476 3.565L17.86 11h4.466l-.004.273a10.92 10.92 0 0 1-3.266 7.505A11.25 11.25 0 0 1 11.163 22c-2.96 0-5.8-1.159-7.894-3.222q-.563-.556-1.036-1.178h8.93c1.776 0 3.48-.695 4.736-1.933a6.56 6.56 0 0 0 1.953-4.34L17.86 11h-6.697l-9.438 5.873c-.701-1.093-1.2-2.3-1.475-3.566L4.465 11H0a10.92 10.92 0 0 1 3.27-7.778A11.25 11.25 0 0 1 11.162 0Z"/><path fill="#0D0D0D" d="M51.502 16.744c.525.97 1.537 1.58 2.842 1.58s2.318-.61 2.842-1.58h1.964c-.65 1.937-2.453 3.232-4.806 3.232s-4.156-1.295-4.805-3.232z"/><path fill="#0D0D0D" fill-rule="evenodd" d="M80.095 6.468c2.991 0 5.087 2.028 5.087 4.938 0 3.08-2.325 4.826-4.782 4.826-1.525 0-2.82-.676-3.506-1.878v5.595h-1.81v-8.524c0-3.023 2.096-4.957 5.01-4.957Zm.019 1.652c-1.925 0-3.22 1.352-3.22 3.23s1.295 3.23 3.22 3.23c1.943 0 3.24-1.353 3.24-3.23s-1.297-3.23-3.24-3.23M43.568 6.468c2.972 0 5.068 2.065 5.068 4.882s-2.096 4.882-5.068 4.882c-2.973 0-5.069-2.066-5.069-4.882 0-2.817 2.096-4.882 5.069-4.882m0 1.652c-1.944 0-3.24 1.352-3.24 3.23s1.296 3.23 3.24 3.23c1.943 0 3.239-1.353 3.239-3.23s-1.296-3.23-3.24-3.23Zm10.977-1.648h4.924v1.595h-1.27c.769.85 1.214 1.987 1.214 3.283 0 2.816-2.096 4.882-5.069 4.882s-5.068-2.066-5.068-4.882c0-2.817 2.096-4.882 5.068-4.882q.102 0 .201.004m-.2 1.648c-1.944 0-3.24 1.352-3.24 3.23s1.296 3.23 3.24 3.23c1.943 0 3.238-1.353 3.238-3.23s-1.295-3.23-3.239-3.23Zm10.776-1.652c2.972 0 5.068 2.065 5.068 4.882s-2.095 4.882-5.068 4.882-5.068-2.066-5.068-4.882c0-2.817 2.095-4.882 5.068-4.882m0 1.652c-1.943 0-3.24 1.352-3.24 3.23s1.297 3.23 3.24 3.23 3.24-1.353 3.24-3.23c-.001-1.878-1.297-3.23-3.24-3.23" clip-rule="evenodd"/><path fill="#0D0D0D" d="M89.758 6.468c2.249 0 3.64 1.258 3.677 2.854h-1.791c-.057-.713-.724-1.24-1.867-1.24-1.2 0-1.886.564-1.886 1.296 0 .883.99.977 2.152 1.127 1.64.206 3.64.507 3.64 2.628 0 1.878-1.543 3.099-3.906 3.099s-3.85-1.24-3.906-2.93H87.7c.038.77.762 1.315 2.077 1.315 1.372 0 2.076-.582 2.076-1.314 0-.883-.99-.996-2.171-1.146-1.639-.207-3.62-.507-3.62-2.629 0-1.821 1.448-3.06 3.696-3.06m6.791 5.088c0 2.01 1.124 3.023 2.839 3.023s2.839-1.014 2.839-3.023V6.712h1.81v4.844c0 3.08-1.867 4.676-4.649 4.676s-4.65-1.578-4.65-4.676V6.712h1.81v4.844Zm-65.582 2.667h6.993v1.765h-8.937V3.708h1.944zm42.396 1.765h-1.81V6.712h1.81zm42.596-9.52c2.21 0 3.888 1.314 3.888 4.15v5.37h-1.811v-5.37c0-1.728-.933-2.498-2.248-2.498-1.277 0-2.23.808-2.23 2.498v5.37h-1.81v-5.37c0-1.69-.972-2.498-2.248-2.498-1.315 0-2.249.77-2.249 2.498v5.37h-1.81v-5.37c0-2.836 1.677-4.15 3.887-4.15 1.448 0 2.668.638 3.315 1.84.648-1.202 1.849-1.84 3.316-1.84M72.449 2.75c.724 0 1.257.526 1.258 1.24 0 .713-.534 1.258-1.258 1.258a1.23 1.23 0 0 1-1.258-1.259c0-.713.534-1.239 1.258-1.239"/></g><defs><clipPath id="a"><path fill="#fff" d="M0 0h120v22H0z"/></clipPath></defs></svg>