<svg xmlns="http://www.w3.org/2000/svg" width="133" height="22" fill="none"><g clip-path="url(#a)"><path fill="#0D0D0D" d="M109.348 5.752h4.91l4.57 7.79 4.585-7.79h4.91v10.231h-2.307V5.853l-5.96 10.13h-2.441l-5.975-10.13v10.13h-2.292zm-14.79 6.255a3.13 3.13 0 0 1-3.15-3.128 3.137 3.137 0 0 1 3.15-3.127h13.385v2.28H94.558a.853.853 0 0 0-.857.847c0 .483.385.863.858.863h10.219c1.745 0 3.165 1.388 3.165 3.128 0 1.725-1.42 3.113-3.165 3.113h-13.37v-2.265h13.37c.473 0 .858-.38.858-.848a.857.857 0 0 0-.858-.863zm-8.382-6.255c2.218 0 4.022 1.783 4.022 3.99 0 2.192-1.804 3.976-4.022 3.976H75.823v2.265h-2.292V5.752zm-.015 5.685c.961 0 1.73-.76 1.73-1.695 0-.95-.769-1.71-1.73-1.71H75.823v3.405zM61.2 8.032c-1.598 0-2.884 1.271-2.884 2.835 0 1.579 1.286 2.85 2.883 2.85h8.549v-1.783h-8.77V9.67h11.077v6.314H61.199c-2.869 0-5.176-2.28-5.176-5.116 0-2.82 2.307-5.115 5.176-5.115h10.856v2.28H61.199Zm-20.02 7.951V5.752h2.292v7.966h11.58v2.265zM132.617 5.18c0 .734-.603 1.33-1.346 1.33a1.34 1.34 0 0 1-1.346-1.33c0-.735.603-1.33 1.346-1.33s1.346.595 1.346 1.33"/><path fill="#4D0DA2" d="M17.808 5.5h5.564c3.074 0 5.565 2.462 5.565 5.5s-2.491 5.5-5.565 5.5h-3.339v-1.1h3.34c2.458 0 4.451-1.97 4.451-4.4s-1.993-4.4-4.452-4.4h-5.564v5.5h5.564c.615 0 1.113-.492 1.113-1.1 0-.607-.498-1.1-1.113-1.1h-3.339V8.8h3.34c1.229 0 2.225.985 2.225 2.2s-.996 2.2-2.226 2.2h-5.564v5.5h5.564c4.303 0 7.791-3.447 7.791-7.7s-3.488-7.7-7.79-7.7h-3.34V2.2h3.34c4.917 0 8.903 3.94 8.903 8.8s-3.986 8.8-8.904 8.8h-5.564V22h5.564c6.147 0 11.13-4.925 11.13-11S29.52 0 23.372 0h-5.564zM11.13 0C4.983 0 0 4.925 0 11s4.983 11 11.13 11h5.565v-5.5H11.13c-3.074 0-5.565-2.463-5.565-5.5s2.491-5.5 5.565-5.5h3.339v1.1h-3.34c-2.458 0-4.451 1.97-4.451 4.4s1.993 4.4 4.452 4.4h5.565V9.9H11.13c-.615 0-1.113.492-1.113 1.1 0 .607.498 1.1 1.113 1.1h3.339v1.1h-3.34c-1.229 0-2.225-.985-2.225-2.2S9.9 8.8 11.13 8.8h5.565V3.3H11.13c-4.303 0-7.791 3.447-7.791 7.7s3.488 7.7 7.79 7.7h3.34v1.1h-3.34c-4.917 0-8.903-3.94-8.903-8.8s3.986-8.8 8.904-8.8h5.565V0z"/></g><defs><clipPath id="a"><path fill="#fff" d="M0 0h133v22H0z"/></clipPath></defs></svg>