<svg xmlns="http://www.w3.org/2000/svg" width="106" height="25" fill="none"><path fill="#0D0D0D" d="M0 24.224 8.384.384h4.672l8.384 23.84h-4.032l-1.824-5.344H5.888l-1.856 5.344zm6.976-8.704h7.456L10.208 3.04h1.056zm22.715 9.088q-2.496 0-4.48-1.184a8.94 8.94 0 0 1-3.104-3.264q-1.12-2.047-1.12-4.608t1.152-4.608 3.104-3.232q1.953-1.185 4.416-1.184 2.08 0 3.68.832a6.43 6.43 0 0 1 2.528 2.304l-.544.832V0h3.584v24.224h-3.424v-3.52l.416.672q-.895 1.567-2.56 2.4-1.664.832-3.648.832m.352-3.36q1.505 0 2.688-.736a5.06 5.06 0 0 0 1.888-2.016q.704-1.312.704-2.944t-.704-2.912a5.06 5.06 0 0 0-1.888-2.016q-1.184-.736-2.688-.736t-2.72.736a5.06 5.06 0 0 0-1.888 2.016q-.672 1.28-.672 2.912 0 1.633.672 2.944a5.13 5.13 0 0 0 1.856 2.016q1.215.736 2.752.736m16.51 2.976L39.769 6.912h3.936l5.216 14.112h-1.44l5.216-14.112h3.968l-6.816 17.312zm10.97 0V6.912h3.615v17.312zm0-19.68V.384h3.615v4.16zm14.371 20.064q-2.592 0-4.608-1.184a8.6 8.6 0 0 1-3.104-3.264q-1.12-2.08-1.12-4.64 0-2.624 1.12-4.64 1.152-2.016 3.072-3.168 1.92-1.185 4.352-1.184 1.953 0 3.488.672a7.4 7.4 0 0 1 2.592 1.856 7.8 7.8 0 0 1 1.6 2.656 8.9 8.9 0 0 1 .576 3.2q0 .415-.032.864a5 5 0 0 1-.128.832H65.91v-2.88h11.744l-1.728 1.312q.32-1.568-.224-2.784a4.13 4.13 0 0 0-1.6-1.952q-1.056-.736-2.496-.736c-1.44 0-1.813.245-2.56.736q-1.119.704-1.728 2.048-.607 1.312-.48 3.2-.159 1.76.48 3.072.672 1.312 1.856 2.048 1.216.735 2.752.736 1.568 0 2.656-.704a5.14 5.14 0 0 0 1.76-1.824l2.944 1.44q-.511 1.216-1.6 2.208-1.056.96-2.56 1.536-1.471.544-3.232.544m16.297 0q-2.656 0-4.672-1.312-1.983-1.312-2.784-3.52l2.784-1.312q.705 1.472 1.92 2.336a4.73 4.73 0 0 0 2.752.864q1.28 0 2.08-.576t.8-1.568q0-.64-.352-1.024a2.6 2.6 0 0 0-.896-.672 4.8 4.8 0 0 0-1.056-.384l-2.72-.768q-2.24-.64-3.36-1.92a4.62 4.62 0 0 1-1.088-3.04q0-1.568.8-2.72.801-1.184 2.208-1.824 1.409-.64 3.168-.64 2.368 0 4.224 1.184 1.857 1.152 2.624 3.232l-2.784 1.312a4.25 4.25 0 0 0-1.632-1.984q-1.087-.736-2.464-.736-1.184 0-1.888.576a1.73 1.73 0 0 0-.704 1.44q0 .608.32 1.024.32.385.832.64.513.224 1.056.384l2.816.832q2.145.607 3.296 1.92 1.152 1.28 1.152 3.072 0 1.535-.832 2.72-.8 1.152-2.24 1.824-1.44.64-3.36.64m15.863-.192q-2.72 0-4.224-1.536-1.503-1.536-1.504-4.32v-8.384h-3.04V6.912h.48q1.216 0 1.888-.704.672-.705.672-1.92V2.944h3.616v3.968h3.936v3.264h-3.936V18.4q0 .896.288 1.536.288.608.928.96.64.32 1.664.32.257 0 .576-.032.32-.032.608-.064v3.104q-.447.064-.992.128a8 8 0 0 1-.96.064"/></svg>