<svg xmlns="http://www.w3.org/2000/svg" width="32" height="32" fill="none"><path fill="#5372B0" d="M2.863 15.747q10.495-4.572 13.997-6.029c6.665-2.772 8.05-3.254 8.952-3.27.199-.003.643.046.93.28.243.196.31.463.342.65.032.186.072.612.04.944-.361 3.795-1.924 13.005-2.72 17.255-.335 1.798-.998 2.401-1.64 2.46-1.393.129-2.451-.92-3.801-1.805-2.113-1.385-3.306-2.247-5.356-3.598-2.37-1.562-.834-2.42.517-3.823.353-.366 6.494-5.952 6.613-6.459.015-.063.029-.3-.112-.424-.14-.125-.347-.082-.497-.048q-.318.072-10.123 6.691-1.437.987-2.603.961c-.857-.018-2.505-.484-3.73-.883-1.504-.488-2.698-.746-2.594-1.576q.082-.648 1.785-1.326"/></svg>