<svg xmlns="http://www.w3.org/2000/svg" width="113" height="22" fill="none"><g clip-path="url(#a)"><path fill="#D41C1C" d="M9.702 1.461 11.188 0l11.188 11-11.188 11-1.486-1.461L19.404 11z"/><path fill="#D41C1C" d="m7.761 3.37 1.487-1.462L18.496 11l-9.248 9.092-1.487-1.461L15.523 11 7.76 3.37Z"/><path fill="#D41C1C" d="m0 11 7.307-7.185L14.615 11l-7.308 7.184-1.486-1.46L11.642 11 7.307 6.738l-5.82 5.723z"/><path fill="#D41C1C" d="M7.307 7.63 5.821 9.093 7.761 11l-3.88 3.816 1.486 1.46L10.734 11z"/><path fill="#D41C1C" d="M3.427 14.37 1.94 12.907l3.412-3.354 1.486 1.461-3.411 3.354Z"/><path fill="#0D0D0D" d="M108.751 7.061q1.08 0 1.929.441.864.442 1.346 1.308.5.867.499 2.092v5.313h-1.878V11.18q0-1.21-.616-1.847-.615-.654-1.679-.654-1.063 0-1.696.654-.615.637-.615 1.847v5.035h-1.878V11.18q0-1.21-.615-1.847-.615-.654-1.68-.654-1.063 0-1.695.654-.615.637-.615 1.847v5.035h-1.896V7.208h1.895v1.03q.466-.556 1.181-.866a3.8 3.8 0 0 1 1.529-.311q1.098 0 1.962.458.864.457 1.33 1.324.416-.818 1.297-1.292a3.83 3.83 0 0 1 1.895-.49m-13.008.147v9.006h-1.895v-1.062q-.449.556-1.18.883-.715.31-1.53.31-1.08 0-1.945-.441a3.3 3.3 0 0 1-1.346-1.308q-.482-.866-.482-2.092V7.208h1.878v5.018q0 1.21.616 1.863.615.638 1.678.638 1.065 0 1.68-.638.63-.653.631-1.863V7.208zm-13.269 9.154q-1.081 0-1.945-.376-.848-.393-1.347-1.046a2.6 2.6 0 0 1-.532-1.488h1.962q.05.573.548.964.516.376 1.28.376.8 0 1.23-.294.45-.31.45-.784 0-.507-.499-.752-.483-.246-1.546-.54a15 15 0 0 1-1.68-.54 3 3 0 0 1-1.13-.8q-.465-.54-.465-1.422 0-.72.432-1.308.432-.604 1.23-.948.815-.343 1.862-.343 1.563 0 2.51.785.965.768 1.031 2.108H83.97a1.32 1.32 0 0 0-.499-.964q-.45-.36-1.213-.36-.749 0-1.147.278-.4.277-.4.736 0 .359.266.604.267.246.649.393.383.13 1.13.343.998.261 1.63.54.648.26 1.114.784.464.523.482 1.39 0 .768-.433 1.372-.432.605-1.23.948-.78.345-1.845.344m-12.115-7.83q.481-.621 1.313-1.046.83-.425 1.879-.425 1.196 0 2.177.588a4.03 4.03 0 0 1 1.563 1.619q.565 1.046.565 2.402 0 1.358-.565 2.436a4.23 4.23 0 0 1-1.563 1.667 4.15 4.15 0 0 1-2.177.589q-1.048 0-1.863-.41a4.3 4.3 0 0 1-1.33-1.045v5.59h-1.895V7.208h1.896zm5.57 3.138q0-.931-.4-1.601a2.5 2.5 0 0 0-1.03-1.03 2.77 2.77 0 0 0-2.727 0 2.77 2.77 0 0 0-1.031 1.046q-.382.687-.382 1.618 0 .932.382 1.635.4.686 1.03 1.046a2.77 2.77 0 0 0 2.727 0q.65-.375 1.03-1.079.4-.703.4-1.635ZM65.626 6.015q-.516 0-.865-.343a1.14 1.14 0 0 1-.349-.85q0-.507.35-.85.348-.344.864-.344.498 0 .848.344.349.343.349.85 0 .505-.35.85a1.16 1.16 0 0 1-.847.343m.931 1.193v9.006h-1.895V7.208zm-7.942 9.154q-1.297 0-2.344-.572a4.3 4.3 0 0 1-1.646-1.635q-.598-1.062-.598-2.452 0-1.373.615-2.435t1.679-1.635 2.377-.572 2.378.572a4.2 4.2 0 0 1 1.679 1.635q.615 1.062.615 2.435c0 1.373-.21 1.727-.631 2.436a4.4 4.4 0 0 1-1.73 1.65q-1.08.573-2.394.573m0-1.619q.732 0 1.363-.343a2.6 2.6 0 0 0 1.048-1.03q.399-.686.399-1.667t-.383-1.65a2.55 2.55 0 0 0-1.014-1.03 2.8 2.8 0 0 0-1.363-.344 2.8 2.8 0 0 0-1.363.343q-.615.345-.981 1.03-.366.67-.366 1.651 0 1.455.749 2.256.764.784 1.911.784m-10.019 1.619q-1.297 0-2.345-.572a4.3 4.3 0 0 1-1.645-1.635q-.6-1.062-.599-2.452 0-1.373.615-2.435t1.68-1.635q1.063-.572 2.377-.572t2.377.572q1.065.572 1.68 1.635.614 1.062.614 2.435c0 1.373-.21 1.727-.632 2.436a4.4 4.4 0 0 1-1.729 1.65q-1.08.573-2.393.573m0-1.619a2.8 2.8 0 0 0 1.363-.343 2.6 2.6 0 0 0 1.047-1.03q.4-.686.4-1.667t-.383-1.65a2.55 2.55 0 0 0-1.014-1.03 2.8 2.8 0 0 0-1.364-.344 2.8 2.8 0 0 0-1.363.343q-.615.345-.98 1.03-.367.67-.367 1.651 0 1.455.749 2.256.765.784 1.912.784m-10.02 1.619q-1.297 0-2.344-.572a4.3 4.3 0 0 1-1.646-1.635q-.6-1.062-.599-2.452 0-1.373.615-2.435t1.68-1.635q1.063-.572 2.377-.572t2.377.572q1.065.572 1.68 1.635.614 1.062.614 2.435c0 1.373-.21 1.727-.631 2.436a4.4 4.4 0 0 1-1.73 1.65q-1.08.573-2.393.573m0-1.619a2.8 2.8 0 0 0 1.363-.343 2.6 2.6 0 0 0 1.047-1.03q.4-.686.4-1.667t-.383-1.65a2.55 2.55 0 0 0-1.014-1.03 2.8 2.8 0 0 0-1.363-.344q-.732 0-1.364.343-.615.345-.98 1.03-.366.67-.366 1.651 0 1.455.748 2.256.765.784 1.912.784m-8.884-.033H33.6v1.504h-5.802V4.854h1.895v9.857Z"/><path fill="#0D0D0D" fill-rule="evenodd" d="M50.343 17.888a2.7 2.7 0 0 0 .98-1.44l1.831.482a4.56 4.56 0 0 1-1.656 2.438 4.7 4.7 0 0 1-2.823.942 4.7 4.7 0 0 1-2.824-.942 4.56 4.56 0 0 1-1.656-2.438l1.832-.482c.156.573.5 1.079.979 1.44a2.77 2.77 0 0 0 1.669.557 2.77 2.77 0 0 0 1.668-.557" clip-rule="evenodd"/></g><defs><clipPath id="a"><path fill="#fff" d="M0 0h113v22H0z"/></clipPath></defs></svg>