<svg xmlns="http://www.w3.org/2000/svg" width="122" height="22" fill="none"><g clip-path="url(#a)"><path fill="#FF4D00" fill-rule="evenodd" d="M10.991 0c4.109 0 6.163 0 7.694.884A6.6 6.6 0 0 1 21.099 3.3c.883 1.532.883 3.588.883 7.7s0 6.169-.883 7.7a6.6 6.6 0 0 1-2.414 2.416C17.155 22 15.1 22 10.99 22s-6.163 0-7.694-.884A6.6 6.6 0 0 1 .883 18.7C0 17.169 0 15.112 0 11s0-6.168.883-7.7A6.6 6.6 0 0 1 3.297.884C4.827 0 6.882 0 10.991 0m1.1 2.2c-4.857 0-8.794 3.94-8.794 8.8s3.937 8.8 8.793 8.8 8.793-3.94 8.793-8.8-3.937-8.8-8.793-8.8Z" clip-rule="evenodd"/><path fill="#FF4D00" d="M19.784 11c0 3.037-2.46 5.5-5.496 5.5A5.5 5.5 0 0 1 8.793 11c0-3.038 2.46-5.5 5.495-5.5a5.5 5.5 0 0 1 5.496 5.5"/><path fill="#0D0D0D" d="M117.898 6.192q1.843 0 2.963 1.133Q122 8.44 122 10.455v5.844h-2.53v-5.503q0-1.17-.596-1.78-.598-.63-1.627-.63-1.03 0-1.645.63-.596.61-.596 1.78v5.503h-2.531v-5.503q0-1.17-.596-1.78-.596-.63-1.627-.63-1.048 0-1.662.63-.597.61-.597 1.78v5.503h-2.53V6.336h2.53v1.205q.487-.63 1.248-.99a4 4 0 0 1 1.698-.359q1.175 0 2.097.504.921.485 1.428 1.402a3.63 3.63 0 0 1 1.409-1.384 4.1 4.1 0 0 1 2.025-.522m-14.299.144V16.3h-2.548v-1.26a3.4 3.4 0 0 1-1.284 1.025q-.776.36-1.698.36-1.174 0-2.079-.486a3.63 3.63 0 0 1-1.427-1.456q-.507-.972-.507-2.302V6.336h2.53v5.485q0 1.187.597 1.834.597.63 1.627.63 1.049 0 1.644-.63.597-.647.597-1.834V6.336zM88.763 16.46q-1.23 0-2.206-.43-.975-.45-1.554-1.206a3.06 3.06 0 0 1-.614-1.672h2.548q.072.576.56.953.507.378 1.248.378.722 0 1.12-.288.416-.288.416-.738 0-.485-.507-.719-.488-.252-1.572-.54-1.12-.27-1.843-.557a3.3 3.3 0 0 1-1.23-.88q-.505-.595-.505-1.601 0-.828.47-1.511.488-.683 1.373-1.08.905-.395 2.115-.395 1.788 0 2.855.9 1.066.88 1.175 2.391H90.19a1.26 1.26 0 0 0-.506-.935q-.433-.36-1.175-.36-.686 0-1.066.252a.81.81 0 0 0-.361.702q0 .503.506.773.505.252 1.572.521 1.085.27 1.79.558t1.21.899q.524.594.542 1.582 0 .863-.488 1.547-.469.683-1.373 1.08-.885.376-2.078.377ZM75.845 7.775q.488-.684 1.338-1.133.867-.468 1.97-.468 1.282 0 2.313.63 1.047.63 1.645 1.798.614 1.15.614 2.68 0 1.528-.614 2.715-.597 1.17-1.645 1.816a4.26 4.26 0 0 1-2.314.648q-1.102 0-1.952-.45a4.2 4.2 0 0 1-1.355-1.133v6.168h-2.53V6.336h2.53zm5.295 3.507q0-.9-.38-1.547a2.46 2.46 0 0 0-.975-1.007 2.57 2.57 0 0 0-1.302-.342q-.686 0-1.3.36a2.6 2.6 0 0 0-.976 1.007q-.363.666-.362 1.565 0 .898.362 1.564.379.665.976 1.025.614.342 1.3.342.705 0 1.302-.36.615-.36.976-1.025.38-.666.38-1.582ZM70.2 5.15q-.669 0-1.12-.414a1.44 1.44 0 0 1-.434-1.061q0-.63.434-1.043.451-.432 1.12-.432.67 0 1.103.432.452.413.452 1.043t-.452 1.06q-.435.414-1.102.414Zm1.248 1.186V16.3h-2.53V6.336zM62.47 16.46q-1.445 0-2.602-.629a4.74 4.74 0 0 1-1.826-1.816q-.65-1.17-.65-2.697 0-1.53.668-2.698a4.7 4.7 0 0 1 1.862-1.798q1.175-.648 2.62-.648 1.447 0 2.621.648a4.6 4.6 0 0 1 1.844 1.798q.687 1.169.686 2.698 0 1.528-.704 2.697a4.8 4.8 0 0 1-1.88 1.816q-1.174.63-2.638.63Zm0-2.193a2.65 2.65 0 0 0 1.284-.324 2.47 2.47 0 0 0 .976-1.007q.36-.666.361-1.618 0-1.422-.76-2.176a2.43 2.43 0 0 0-1.824-.774q-1.085 0-1.826.774-.723.754-.722 2.176 0 1.42.704 2.194.722.755 1.808.755ZM51.578 16.46q-1.446 0-2.603-.629a4.74 4.74 0 0 1-1.825-1.816q-.65-1.17-.65-2.697 0-1.53.668-2.698a4.7 4.7 0 0 1 1.862-1.798q1.174-.648 2.62-.648t2.62.648a4.6 4.6 0 0 1 1.844 1.798q.687 1.169.687 2.698t-.705 2.697a4.8 4.8 0 0 1-1.88 1.816q-1.174.63-2.638.63Zm0-2.193q.687 0 1.283-.324.615-.341.976-1.007.362-.666.362-1.618 0-1.422-.76-2.176a2.43 2.43 0 0 0-1.825-.774q-1.084 0-1.825.774-.723.754-.723 2.176 0 1.42.705 2.194.723.755 1.807.755M40.685 16.46q-1.446 0-2.602-.629a4.73 4.73 0 0 1-1.826-1.816q-.65-1.17-.65-2.697 0-1.53.668-2.698a4.7 4.7 0 0 1 1.862-1.798q1.175-.648 2.62-.648 1.447 0 2.621.648a4.6 4.6 0 0 1 1.844 1.798q.686 1.169.686 2.698t-.704 2.697a4.8 4.8 0 0 1-1.88 1.816q-1.175.63-2.639.63Zm0-2.193q.687 0 1.283-.324.615-.341.976-1.007.362-.666.362-1.618 0-1.422-.76-2.176a2.43 2.43 0 0 0-1.825-.774q-1.084 0-1.825.774-.723.754-.723 2.176 0 1.42.705 2.194.723.755 1.807.755m-9.578.036h4.157v1.996h-6.688V3.747h2.53z"/><path fill="#0D0D0D" d="M54.034 16.88a6 6 0 0 0 .598-.28l.005-.002a5.66 5.66 0 0 0 2.084-1.926v1.977a4.91 4.91 0 0 1-4.91 4.801h-.27a4.91 4.91 0 0 1-4.91-4.801h2.664a2.25 2.25 0 0 0 2.246 2.14h.27c1.127 0 2.06-.828 2.223-1.91Z"/></g><defs><clipPath id="a"><path fill="#fff" d="M0 0h122v22H0z"/></clipPath></defs></svg>