<svg xmlns="http://www.w3.org/2000/svg" width="32" height="32" fill="none"><path fill="#5372B0" d="M16.325 5.333c.712.004 2.494.021 4.387.097l.671.03c1.906.09 3.81.244 4.755.507 1.26.354 2.25 1.387 2.585 2.696.533 2.079.6 6.136.608 7.118l.001.203v.029l-.001.203c-.008.982-.075 5.04-.608 7.118-.34 1.314-1.33 2.347-2.585 2.696-.944.263-2.849.418-4.755.508l-.67.029c-1.894.076-3.676.093-4.388.097l-.312.001h-.34c-1.508-.01-7.81-.077-9.814-.635-1.26-.354-2.25-1.387-2.585-2.696-.532-2.078-.599-6.136-.607-7.118v-.435c.008-.982.075-5.04.607-7.118.34-1.314 1.33-2.347 2.585-2.696 2.005-.558 8.306-.626 9.814-.634zm-2.993 5.999v9.333l8-4.666z"/></svg>