<svg xmlns="http://www.w3.org/2000/svg" width="152" height="28" fill="none"><g clip-path="url(#a)"><path fill="#15E3FF" d="m9.09 14.248 3.144 1.465-.403 3.644-5.62 6.423A14 14 0 0 1 0 16.176z"/><path fill="#348DFC" d="m17.479 18.158 4.204 7.307A13.74 13.74 0 0 1 13.716 28a14 14 0 0 1-2.81-.287l.925-8.356 2.381-2.721z"/><path fill="#FD4873" d="M27.14 10.417a14 14 0 0 1 .458 3.582c0 2.881-.863 5.56-2.343 7.786l-7.776-3.627-1.824-3.17 2.292-2.62 9.192-1.951Z"/><path fill="#FFC700" d="M13.973 0c4.177.077 7.903 2.014 10.399 5.025l-6.426 7.344-3.385.718-1.708-2.967z"/><path fill="#00E7B9" d="m12.853 10.12-.377 3.409-3.384.718-8.735-4.073a14 14 0 0 1 7.44-8.843z"/><path fill="#0D0D0D" d="M133.894 20.537v-6.703c0-3.834 2.204-5.522 5.077-5.522 1.677 0 3.09.651 3.976 1.905.886-1.254 2.276-1.905 3.976-1.905 2.873 0 5.077 1.688 5.077 5.522v6.703h-3.592v-6.703c0-1.592-.767-2.146-1.845-2.146-1.053 0-1.819.554-1.819 2.146v6.703h-3.593v-6.703c0-1.592-.767-2.146-1.82-2.146-1.078 0-1.844.554-1.844 2.146v6.703zm-7.367.202c-3.497 0-5.845-2.026-5.845-6.052V8.514h3.593v6.173c0 1.88.91 2.676 2.252 2.676 1.34 0 2.25-.795 2.25-2.676V8.514h3.593v6.173c0 4.002-2.347 6.052-5.843 6.052m-11.956 0c-3.042 0-5.005-1.64-5.053-3.93h3.544c.024.627.479.94 1.461.94 1.102 0 1.461-.386 1.461-.892 0-.796-.862-.868-1.964-1.037-1.628-.24-4.311-.65-4.311-3.52 0-2.411 1.892-4.099 4.838-4.099s4.766 1.712 4.838 3.858h-3.496c-.096-.555-.576-.868-1.294-.868-.886 0-1.245.458-1.245.94 0 .723.862.82 1.964.989 1.7.24 4.311.699 4.311 3.52 0 2.46-2.012 4.099-5.054 4.099m-18.324 4.774V14.59c0-4.002 2.682-6.389 6.299-6.389 3.76 0 6.394 2.58 6.394 6.414 0 4.147-3.065 6.124-5.747 6.124-1.413 0-2.611-.555-3.353-1.616v6.39zm6.322-8.15c1.629 0 2.731-1.181 2.731-2.893s-1.102-2.893-2.731-2.893-2.73 1.181-2.73 2.893 1.102 2.893 2.73 2.893M92.535 7.43c-1.317 0-2.299-.99-2.299-2.315 0-1.326.982-2.315 2.3-2.315 1.316 0 2.298.989 2.298 2.315s-.982 2.314-2.299 2.314ZM90.74 20.424V8.515h3.593v11.91H90.74Zm-7.798.315c-3.736 0-6.37-2.652-6.37-6.269s2.634-6.269 6.37-6.269 6.37 2.652 6.37 6.269-2.634 6.269-6.37 6.269m0-3.376c1.629 0 2.73-1.181 2.73-2.893s-1.101-2.893-2.73-2.893c-1.628 0-2.73 1.181-2.73 2.893s1.102 2.893 2.73 2.893m-13.305 3.376c-3.736 0-6.37-2.652-6.37-6.269s2.634-6.269 6.37-6.269 6.37 2.652 6.37 6.269-2.634 6.269-6.37 6.269m0-3.376c1.628 0 2.73-1.181 2.73-2.893s-1.102-2.893-2.73-2.893c-1.629 0-2.73 1.181-2.73 2.893s1.101 2.893 2.73 2.893m-13.306 3.376c-3.736 0-6.37-2.652-6.37-6.269s2.634-6.269 6.37-6.269 6.371 2.652 6.371 6.269-2.634 6.269-6.37 6.269Zm0-3.376c1.63 0 2.73-1.181 2.73-2.893s-1.1-2.893-2.73-2.893c-1.628 0-2.73 1.181-2.73 2.893s1.102 2.893 2.73 2.893m-18.157 3.062V4.657h3.88v12.152h7.4v3.616zm37.356 1.117c-.362 3.347-2.596 5.058-5.79 5.058-3.196 0-5.43-1.692-5.791-5.058h3.644c.275 1.171 1.072 1.682 2.147 1.682s1.872-.51 2.147-1.682h3.644Z"/></g><defs><clipPath id="a"><path fill="#fff" d="M0 0h152v28H0z"/></clipPath></defs></svg>